<?xml version="1.0" encoding="UTF-8"?>
<svg xmlns="http://www.w3.org/2000/svg" xmlns:xlink="http://www.w3.org/1999/xlink" width="392" height="67.491" viewBox="0 0 392 67.491">
  <defs>
    <radialGradient id="radial-gradient" cx="0.5" cy="0.663" r="0.667" gradientTransform="translate(0.166) scale(0.668 1)" gradientUnits="objectBoundingBox">
      <stop offset="0.259" stop-color="#a97622" stop-opacity="0"></stop>
      <stop offset="0.299" stop-color="#a97622" stop-opacity="0.153"></stop>
      <stop offset="0.366" stop-color="#a97622" stop-opacity="0.376"></stop>
      <stop offset="0.438" stop-color="#a97622" stop-opacity="0.573"></stop>
      <stop offset="0.516" stop-color="#a97622" stop-opacity="0.729"></stop>
      <stop offset="0.601" stop-color="#a97622" stop-opacity="0.851"></stop>
      <stop offset="0.697" stop-color="#a97622" stop-opacity="0.933"></stop>
      <stop offset="0.812" stop-color="#a97622" stop-opacity="0.984"></stop>
      <stop offset="1" stop-color="#a97622"></stop>
    </radialGradient>
  </defs>
  <g id="logo" transform="translate(-829 -370.212)">
    <g id="Group_5" data-name="Group 5" transform="translate(829 373.253)">
      <path id="Path_29" data-name="Path 29" d="M869.644,252.579q-.382-1.11-1.6-4.288l-4.34-10.729q-.69-1.708-.856-1.976a.659.659,0,0,0-.32-.243,5.384,5.384,0,0,0-1.4-.2v-.816q2.312.089,3.409.089,1.035,0,3.511-.089v.816q-1.557.026-1.807.065a.571.571,0,0,0-.344.15.38.38,0,0,0-.1.255,3.066,3.066,0,0,0,.179.679q.549,1.737.957,2.794l4,10.084,3.331-8.363q.728-1.8,1.391-3.916a5.794,5.794,0,0,0,.282-1.124.408.408,0,0,0-.332-.408,14.283,14.283,0,0,0-1.967-.217v-.816q1.928.089,2.9.089,1,0,2.745-.089v.816a4.588,4.588,0,0,0-1.162.127.9.9,0,0,0-.358.358q-.114.191-.945,2.067l-3.983,9.8L871.852,250c-.2.5-.37.935-.5,1.3s-.268.79-.422,1.276Z" transform="translate(-762.957 -214.757)" fill="#a97622"></path>
      <path id="Path_30" data-name="Path 30" d="M881.284,250.931v.66q-2.194-.071-2.883-.072l-3.183.072v-.66a7.286,7.286,0,0,0,1.478-.108.678.678,0,0,0,.37-.243,2.649,2.649,0,0,0,.153-1q.014-.216.052-2.928v-4.773q0-1.4-.03-2.742a3.285,3.285,0,0,0-.15-1.16.7.7,0,0,0-.381-.267,7.356,7.356,0,0,0-1.491-.108v-.66q1.966.071,3.038.072,1.031,0,3.028-.072v.66a7.286,7.286,0,0,0-1.483.108.676.676,0,0,0-.365.241,2.664,2.664,0,0,0-.153,1q-.014.207-.053,2.928v4.773q0,1.4.033,2.733a3.262,3.262,0,0,0,.149,1.164.683.683,0,0,0,.383.274A7.33,7.33,0,0,0,881.284,250.931Z" transform="translate(-757.947 -213.826)" fill="#a97622"></path>
      <path id="Path_31" data-name="Path 31" d="M880.7,251.6v-.66a4.234,4.234,0,0,0,1.423-.165.378.378,0,0,0,.206-.2,3.6,3.6,0,0,0,.145-1.082q.061-1.36.062-2.349v-5.264q0-1.4-.033-2.741a3.255,3.255,0,0,0-.149-1.159.7.7,0,0,0-.382-.267,7.324,7.324,0,0,0-1.49-.108v-.66l2.94.061,3.117-.05q2.238-.033,3.249-.033a15.8,15.8,0,0,1,1.93.114,8.158,8.158,0,0,0-.228,1.021q-.02.094-.186,2.147h-.649a11.068,11.068,0,0,0-.134-1.919,4.7,4.7,0,0,0-1.249-.32,18.633,18.633,0,0,0-2.311-.145c-.165,0-.534.015-1.1.042s-.98.051-1.227.072q-.043,1.143-.062,2.139l-.041,3.474q1.206.071,2.218.072a16.668,16.668,0,0,0,2.094-.113.622.622,0,0,0,.423-.165,2.467,2.467,0,0,0,.165-.847l.062-.721h.618v.2l-.051,2.147.051,2.4h-.721l-.031-.7a2.383,2.383,0,0,0-.14-.95.675.675,0,0,0-.449-.258,13.424,13.424,0,0,0-2.28-.123q-.691,0-1.96.052-.053,1.031-.053,3.064,0,1.909.053,2.9,1.482.114,3.327.114a14.372,14.372,0,0,0,1.865-.083,4.36,4.36,0,0,0,1.03-.278,6.517,6.517,0,0,0,.247-.868c.152-.613.251-1.072.3-1.383h.69a28.225,28.225,0,0,0-.267,3.454,14.33,14.33,0,0,1-2.157.137l-6.16-.072Q883.271,251.525,880.7,251.6Z" transform="translate(-756.074 -213.832)" fill="#a97622"></path>
      <path id="Path_32" data-name="Path 32" d="M894.432,251.745l-.939-4.3L891.5,238.96a2.51,2.51,0,0,0-.412-1.067,3.2,3.2,0,0,0-1.28-.294v-.618q1.733.071,2.62.072.795,0,2.682-.072v.618a6.485,6.485,0,0,0-1.557.155.3.3,0,0,0-.134.289,5.665,5.665,0,0,0,.123.918q.34,1.846.454,2.341l1.623,7.138,2.547-6.343q1-2.5,1.97-5.27h.66q.95,2.928,1.7,5.022l2.425,6.725,1.755-6.149q.464-1.649.866-3.434a8.223,8.223,0,0,0,.186-.938.331.331,0,0,0-.181-.314,7.114,7.114,0,0,0-1.644-.14v-.618q1.588.071,2.207.072.638,0,2.207-.072v.618a2.279,2.279,0,0,0-.95.145.992.992,0,0,0-.392.484q-.155.352-.866,2.722l-1.063,3.474q-.155.516-.651,2.341l-1.33,4.98h-1.053q-1.145-3.406-1.774-5.119l-2.353-6.366-2.052,5.1-1.29,3.374q-.268.691-.458,1.234t-.614,1.78Z" transform="translate(-752.759 -213.867)" fill="#a97622"></path>
      <path id="Path_33" data-name="Path 33" d="M906.132,237.568v-.66q2.074.073,3.28.073.805,0,1.713-.023l1.62-.058c.179-.008.344-.012.495-.012a7.423,7.423,0,0,1,2.579.361,3.011,3.011,0,0,1,1.465,1.151,3.17,3.17,0,0,1,.526,1.8,4.087,4.087,0,0,1-.438,1.806,4.162,4.162,0,0,1-1.274,1.522,5.493,5.493,0,0,1-1.745.892,4.84,4.84,0,0,1-1.4.187,7.689,7.689,0,0,1-1.423-.145l-.217-.763a6.759,6.759,0,0,0,1.445.217,3.035,3.035,0,0,0,1.47-.378,2.584,2.584,0,0,0,1.085-1.136,3.657,3.657,0,0,0,.386-1.68,3.414,3.414,0,0,0-.377-1.608,2.464,2.464,0,0,0-1.146-1.09,4.243,4.243,0,0,0-1.862-.373,7.1,7.1,0,0,0-2.1.351q-.094,1.094-.094,3.423v5.2q0,1.4.031,2.733a3.3,3.3,0,0,0,.149,1.164.682.682,0,0,0,.382.274,7.343,7.343,0,0,0,1.491.108v.66q-1.91-.073-2.808-.073-.35,0-3.229.073v-.66a7.277,7.277,0,0,0,1.478-.108.684.684,0,0,0,.37-.243,2.669,2.669,0,0,0,.155-1q.012-.216.051-2.928v-4.773q0-1.4-.031-2.742a3.208,3.208,0,0,0-.15-1.16.7.7,0,0,0-.381-.268A7.465,7.465,0,0,0,906.132,237.568Z" transform="translate(-746.955 -213.845)" fill="#a97622"></path>
      <path id="Path_34" data-name="Path 34" d="M915.884,244.439a8.96,8.96,0,0,1,.489-3.012A6.464,6.464,0,0,1,918,238.94a7.683,7.683,0,0,1,2.569-1.666,8.954,8.954,0,0,1,3.282-.563,9.454,9.454,0,0,1,3.095.48,6.7,6.7,0,0,1,2.286,1.269,6.494,6.494,0,0,1,1.408,1.728,6.576,6.576,0,0,1,.624,1.651,8.478,8.478,0,0,1,.233,2.033,7.809,7.809,0,0,1-2.337,5.788,8.042,8.042,0,0,1-5.9,2.311,8.56,8.56,0,0,1-3.023-.526,6.166,6.166,0,0,1-2.374-1.563,6.9,6.9,0,0,1-1.476-2.519A9.031,9.031,0,0,1,915.884,244.439Zm2.146-.855a10.5,10.5,0,0,0,.2,1.991,9.429,9.429,0,0,0,.5,1.743,6.453,6.453,0,0,0,1.295,2.079,5.067,5.067,0,0,0,1.785,1.238,5.791,5.791,0,0,0,2.181.4,5.132,5.132,0,0,0,2.89-.809,4.866,4.866,0,0,0,1.832-2.28,8.877,8.877,0,0,0,.6-3.39,10.026,10.026,0,0,0-.434-3.023,6.33,6.33,0,0,0-.712-1.532,4.875,4.875,0,0,0-2.651-2.059,6.249,6.249,0,0,0-2.115-.351,5.552,5.552,0,0,0-2.879.733,4.559,4.559,0,0,0-1.862,2.12A7.578,7.578,0,0,0,918.03,243.584Z" transform="translate(-743.487 -213.908)" fill="#a97622"></path>
      <path id="Path_35" data-name="Path 35" d="M934.641,250.967v.66q-2.194-.071-2.885-.072l-3.183.072v-.66a7.292,7.292,0,0,0,1.479-.108.684.684,0,0,0,.37-.243,2.65,2.65,0,0,0,.153-1q.014-.218.051-2.928v-4.774q0-1.4-.031-2.742a3.256,3.256,0,0,0-.149-1.16.7.7,0,0,0-.382-.267,7.331,7.331,0,0,0-1.491-.108v-.66q1.968.071,3.039.072,1.031,0,3.028-.072v.66a7.268,7.268,0,0,0-1.483.108.672.672,0,0,0-.365.243,2.651,2.651,0,0,0-.153,1q-.014.207-.053,2.928v4.774q0,1.4.033,2.732a3.283,3.283,0,0,0,.149,1.166.687.687,0,0,0,.382.272A7.322,7.322,0,0,0,934.641,250.967Z" transform="translate(-738.975 -213.813)" fill="#a97622"></path>
      <path id="Path_36" data-name="Path 36" d="M936.612,236.981c.52,0,1.359-.014,1.872-.041q.866,1.143,1.273,1.688l2.108,2.623L944.941,245q1.476,1.791,2.372,2.82.571.679.958,1.071v-7.514q0-1.009-.073-2.364a3.988,3.988,0,0,0-.133-1.06.44.44,0,0,0-.217-.194,4.489,4.489,0,0,0-1.414-.155v-.66q1.216.041,2.466.041,1.177,0,2.135-.041v.66a4.523,4.523,0,0,0-1.421.155.381.381,0,0,0-.209.206,3.569,3.569,0,0,0-.145,1.082q-.051,1.36-.052,2.338v4.956q0,1.5.052,5.615l-1.063-.309-.247-.052a.336.336,0,0,1-.114-.062,4.066,4.066,0,0,1-.392-.416q-.856-.98-1.259-1.482l-1.331-1.7-7.315-8.834v8q0,1.023.072,2.409a3.862,3.862,0,0,0,.134,1.064.423.423,0,0,0,.217.209,4.464,4.464,0,0,0,1.414.156v.66q-.909-.071-2-.072-1.2,0-2.6.072v-.66a4.28,4.28,0,0,0,1.431-.165.377.377,0,0,0,.208-.2,3.63,3.63,0,0,0,.146-1.08q.05-1.36.05-2.346v-8.391" transform="translate(-736.77 -213.826)" fill="#a97622"></path>
      <path id="Path_37" data-name="Path 37" d="M949.271,240.319h-.64q-.01-2.466-.1-3.416,1.124.043,3.529.1c1.3.027,2.166.041,2.6.041q.7,0,3.251-.062,1.846-.041,2.693-.083-.124,1.157-.165,3.416h-.66l-.083-.991q-.083-.9-.114-1.021a.349.349,0,0,0-.088-.176.428.428,0,0,0-.169-.083q-.144-.03-1.031-.083t-1.4-.05h-1.258q-.1.988-.1,2.669v6.031q0,1.4.031,2.733a3.264,3.264,0,0,0,.149,1.164.683.683,0,0,0,.382.274,7.339,7.339,0,0,0,1.49.108v.66q-1.846-.083-2.775-.083-.4,0-3.219.083v-.66a7.37,7.37,0,0,0,1.488-.108.618.618,0,0,0,.359-.243,2.421,2.421,0,0,0,.164-1q0-.216.051-2.928v-6.009c0-.289-.007-.606-.02-.949l-.062-1.742h-1.537a17.258,17.258,0,0,0-2.115.1.449.449,0,0,0-.32.136,3.651,3.651,0,0,0-.206,1.124Z" transform="translate(-731.88 -213.839)" fill="#a97622"></path>
      <path id="Path_38" data-name="Path 38" d="M824.366,257.457c0-.022,0-.045,0-.066v-.066c0-.012,0-.026,0-.038l-12.456-4.961,12.726,3.036c.005-.018.014-.035.019-.054l.01-.041.008-.023.007-.028-10.588-8.223,11.224,6.36-8.1-10.441,9.424,9.074.05-.043.023-.024c.018-.016.037-.03.054-.046L821.85,239.4l6.507,11.35c.018-.008.035-.015.052-.024l.036-.02.023-.011.025-.014-1.263-13.347,3.1,12.71.066-.009.033-.008.024,0,.065-.012c.026,0,.05-.011.075-.015l.026,0,1.208-12.641v-.213l.01.107.011-.107v.213l1.206,12.641.026,0c.026,0,.05.011.075.015l.065.012.026,0,.031.008.067.009,3.1-12.71-1.265,13.347.024.014.023.011.037.02c.016.009.035.016.052.024l6.507-11.35L836.9,251.872c.018.016.037.03.053.046l.023.024c.016.015.035.028.05.043l9.425-9.074-8.1,10.441,11.224-6.36-10.588,8.223.007.028.008.023.011.041c0,.019.012.037.018.054l12.726-3.036L839.3,257.287c0,.012,0,.026,0,.038v.066c0,.022,0,.045,0,.066l13.068.648-12.082,1.154L874.962,277.5l-43.128-57.609L788.708,277.5l34.674-18.239L811.3,258.105Z" transform="translate(-788.708 -219.889)" fill="url(#radial-gradient)"></path>
    </g>
    <g id="Group_6" data-name="Group 6" transform="translate(1082.647 384.381)">
      <path id="Path_39" data-name="Path 39" d="M981.845,242.214v.655q-2.178-.071-2.863-.072l-3.16.072v-.655a7.472,7.472,0,0,0,1.468-.107.67.67,0,0,0,.366-.241,2.594,2.594,0,0,0,.153-.994q.012-.213.05-2.906v-4.738q0-1.393-.03-2.722a3.247,3.247,0,0,0-.148-1.152.706.706,0,0,0-.379-.266,7.291,7.291,0,0,0-1.48-.107v-.656c1.3.047,2.309.072,3.016.072q1.023,0,3.006-.072v.656a7.192,7.192,0,0,0-1.472.107.674.674,0,0,0-.362.24,2.619,2.619,0,0,0-.153.994q-.012.2-.051,2.906v4.738q0,1.393.031,2.712a3.212,3.212,0,0,0,.149,1.156.681.681,0,0,0,.378.272A7.494,7.494,0,0,0,981.845,242.214Z" transform="translate(-975.822 -228.017)" fill="#424448"></path>
      <path id="Path_40" data-name="Path 40" d="M981.132,242.869v-.655a4.276,4.276,0,0,0,1.422-.164.386.386,0,0,0,.206-.194,3.576,3.576,0,0,0,.144-1.074q.053-1.348.052-2.33v-8.327a1.466,1.466,0,0,0-.041-.439,1.49,1.49,0,0,0-.369-.441.892.892,0,0,0-.426-.209,8.14,8.14,0,0,0-1.07-.056v-.656q1.769.041,2.226.041.773,0,1.536-.041.86,1.135,1.265,1.676l2.092,2.6,3.054,3.718q1.466,1.777,2.356,2.8.565.675.95,1.064v-7.46q0-1-.072-2.346a3.906,3.906,0,0,0-.133-1.051.433.433,0,0,0-.216-.2,4.479,4.479,0,0,0-1.4-.152v-.656q1.208.041,2.448.041,1.167,0,2.12-.041v.656a4.469,4.469,0,0,0-1.411.153.374.374,0,0,0-.207.2,3.522,3.522,0,0,0-.144,1.074q-.051,1.35-.051,2.322v4.918q0,1.495.051,5.576l-1.055-.308-.245-.051a.37.37,0,0,1-.114-.061,4.515,4.515,0,0,1-.389-.413q-.85-.974-1.249-1.471l-1.322-1.688-7.262-8.769v7.938q0,1.015.072,2.391a3.813,3.813,0,0,0,.133,1.055.417.417,0,0,0,.215.207,4.4,4.4,0,0,0,1.4.156v.655q-.9-.071-1.987-.072Q982.526,242.8,981.132,242.869Z" transform="translate(-973.963 -228.017)" fill="#424448"></path>
      <path id="Path_41" data-name="Path 41" d="M1000.531,242.971q-.309-.889-1.281-3.438l-3.482-8.608q-.553-1.371-.686-1.586a.518.518,0,0,0-.256-.2,4.357,4.357,0,0,0-1.127-.163v-.656q1.855.071,2.734.072.829,0,2.817-.072v.656q-1.251.02-1.449.051a.453.453,0,0,0-.277.121.3.3,0,0,0-.077.2,2.468,2.468,0,0,0,.144.545q.439,1.391.769,2.241l3.207,8.09,2.672-6.709q.584-1.442,1.116-3.142a4.625,4.625,0,0,0,.226-.9.326.326,0,0,0-.267-.328,11.2,11.2,0,0,0-1.576-.173v-.656q1.545.071,2.325.072.8,0,2.2-.072v.656a3.619,3.619,0,0,0-.931.1.715.715,0,0,0-.288.287q-.093.152-.758,1.658l-3.2,7.86-.787,2.017c-.164.4-.3.751-.4,1.042s-.215.636-.338,1.024Z" transform="translate(-969.465 -228.017)" fill="#424448"></path>
      <path id="Path_42" data-name="Path 42" d="M1005.3,242.874v-.655a4.21,4.21,0,0,0,1.412-.164.4.4,0,0,0,.206-.194,3.6,3.6,0,0,0,.142-1.075q.061-1.35.062-2.332v-5.226q0-1.391-.031-2.719a3.244,3.244,0,0,0-.148-1.151.7.7,0,0,0-.38-.266,7.278,7.278,0,0,0-1.48-.107v-.656l2.92.062,3.093-.053c1.482-.019,2.555-.03,3.226-.03a15.594,15.594,0,0,1,1.915.113,7.928,7.928,0,0,0-.226,1.014q-.02.092-.184,2.13h-.645a10.942,10.942,0,0,0-.133-1.9,4.73,4.73,0,0,0-1.239-.317,18.379,18.379,0,0,0-2.3-.144c-.164,0-.529.014-1.1.041s-.973.053-1.219.072c-.027.756-.049,1.463-.062,2.123l-.041,3.45q1.2.071,2.2.07a16.186,16.186,0,0,0,2.078-.112.618.618,0,0,0,.42-.163,2.418,2.418,0,0,0,.164-.84l.061-.717h.615v.194l-.051,2.132.051,2.386h-.717l-.031-.7a2.339,2.339,0,0,0-.138-.942.67.67,0,0,0-.445-.256,13.236,13.236,0,0,0-2.264-.123q-.687,0-1.947.052-.051,1.025-.052,3.042,0,1.9.052,2.878,1.472.114,3.3.112a14.456,14.456,0,0,0,1.85-.081,4.367,4.367,0,0,0,1.023-.277,6.658,6.658,0,0,0,.245-.861c.151-.607.248-1.064.3-1.372h.686a27.719,27.719,0,0,0-.266,3.428,14.31,14.31,0,0,1-2.14.135l-6.115-.072Q1007.85,242.8,1005.3,242.874Z" transform="translate(-965.417 -228.023)" fill="#424448"></path>
      <path id="Path_43" data-name="Path 43" d="M1014.682,242.447a23.6,23.6,0,0,0,.2-3.184h.686a7.6,7.6,0,0,0,.17,1.766,1.533,1.533,0,0,0,.569.579,4.705,4.705,0,0,0,1.21.549,4.857,4.857,0,0,0,1.467.24,3.91,3.91,0,0,0,1.909-.477,3.013,3.013,0,0,0,1.272-1.251,3.584,3.584,0,0,0,.4-1.659,3.114,3.114,0,0,0-.2-1.166,1.815,1.815,0,0,0-.61-.793,2.537,2.537,0,0,0-1.014-.426q-.378-.061-1.516-.209c-.758-.1-1.4-.206-1.936-.321a4.322,4.322,0,0,1-1.567-.767,3.213,3.213,0,0,1-.815-1.155,3.809,3.809,0,0,1-.313-1.544,4.405,4.405,0,0,1,.63-2.275,4.2,4.2,0,0,1,1.864-1.662,6.118,6.118,0,0,1,2.679-.594,8.7,8.7,0,0,1,1.9.232,8.462,8.462,0,0,1,1.92.672,11.2,11.2,0,0,0-.2,1.2q-.061.557-.092,1.643h-.686a11.483,11.483,0,0,0-.092-1.722,2.63,2.63,0,0,0-.7-.666,4.44,4.44,0,0,0-2.206-.594,3.076,3.076,0,0,0-3.263,3.247,2.417,2.417,0,0,0,.317,1.347,2.192,2.192,0,0,0,1.139.763,10.722,10.722,0,0,0,1.844.366q1.281.171,2.3.366a3.952,3.952,0,0,1,1.424.682,3,3,0,0,1,.757,1.034,3.536,3.536,0,0,1,.3,1.5,4.641,4.641,0,0,1-1.69,3.556,6.3,6.3,0,0,1-4.373,1.517A8.3,8.3,0,0,1,1014.682,242.447Z" transform="translate(-962.037 -228.098)" fill="#424448"></path>
      <path id="Path_44" data-name="Path 44" d="M1023.352,231.715h-.635q-.01-2.448-.1-3.39,1.117.041,3.5.1,1.938.041,2.583.041.7,0,3.226-.062,1.831-.038,2.671-.081-.122,1.147-.163,3.39h-.656l-.081-.983c-.056-.594-.093-.933-.114-1.014a.328.328,0,0,0-.087-.175.431.431,0,0,0-.168-.083c-.1-.019-.437-.047-1.025-.081s-1.051-.05-1.392-.05h-1.25q-.1.982-.1,2.65v5.986c0,.929.008,1.831.03,2.712a3.309,3.309,0,0,0,.148,1.156.69.69,0,0,0,.38.272,7.493,7.493,0,0,0,1.479.107v.655q-1.832-.081-2.754-.081-.4,0-3.2.081v-.655a7.531,7.531,0,0,0,1.478-.107.616.616,0,0,0,.356-.241,2.43,2.43,0,0,0,.163-.994q0-.213.052-2.906V232q0-.429-.02-.942l-.063-1.728h-1.525a17.023,17.023,0,0,0-2.1.1.439.439,0,0,0-.317.134,3.621,3.621,0,0,0-.206,1.116Z" transform="translate(-959.184 -228.017)" fill="#424448"></path>
      <path id="Path_45" data-name="Path 45" d="M1032.059,228.981v-.656q1.075.041,2.059.041c.664,0,1.3-.014,1.906-.041q.9,2.048,1.648,3.592l3.885,7.992,3.5-7.335q1.436-2.981,1.918-4.25,1.086.041,1.833.041.687,0,2.223-.041v.656a7.291,7.291,0,0,0-1.48.107.679.679,0,0,0-.363.24,2.361,2.361,0,0,0-.153.994q-.012.2-.052,2.906v4.738q0,1.393.052,2.712a3.27,3.27,0,0,0,.147,1.156.68.68,0,0,0,.377.272,7.434,7.434,0,0,0,1.472.107v.655q-2.07-.092-2.918-.092-.687,0-3.032.092v-.655a7.618,7.618,0,0,0,1.486-.107.623.623,0,0,0,.359-.241,2.383,2.383,0,0,0,.154-.994q.01-.213.052-2.906v-7.511l-3.534,7.389q-.832,1.73-1.3,2.784-.338.767-1.024,2.436h-.4a6.236,6.236,0,0,0-.246-.625l-.7-1.484-4.9-10.163v7.174q0,1.391.042,2.712a3.257,3.257,0,0,0,.148,1.156.678.678,0,0,0,.379.272,7.489,7.489,0,0,0,1.479.107v.655l-2.467-.072-2.552.072v-.655a7.426,7.426,0,0,0,1.467-.107.671.671,0,0,0,.367-.241,2.623,2.623,0,0,0,.153-.994q.012-.213.051-2.906v-4.738q0-1.393-.031-2.722a3.162,3.162,0,0,0-.149-1.152.692.692,0,0,0-.378-.266A7.3,7.3,0,0,0,1032.059,228.981Z" transform="translate(-955.825 -228.017)" fill="#424448"></path>
      <path id="Path_46" data-name="Path 46" d="M1046.992,242.874v-.655a4.22,4.22,0,0,0,1.414-.164.394.394,0,0,0,.2-.194,3.635,3.635,0,0,0,.143-1.075q.061-1.35.062-2.332v-5.226q0-1.391-.032-2.719a3.257,3.257,0,0,0-.147-1.151.7.7,0,0,0-.38-.266,7.286,7.286,0,0,0-1.479-.107v-.656l2.919.062,3.093-.053q2.223-.029,3.227-.03a15.59,15.59,0,0,1,1.915.113,8.078,8.078,0,0,0-.226,1.014q-.02.092-.184,2.13h-.645a10.919,10.919,0,0,0-.133-1.9,4.729,4.729,0,0,0-1.239-.317,18.348,18.348,0,0,0-2.293-.144q-.246,0-1.1.041t-1.219.072c-.027.756-.047,1.463-.061,2.123l-.042,3.45q1.2.071,2.2.07a16.216,16.216,0,0,0,2.079-.112.614.614,0,0,0,.419-.163,2.424,2.424,0,0,0,.164-.84l.061-.717h.615v.194l-.051,2.132.051,2.386h-.717l-.03-.7a2.353,2.353,0,0,0-.14-.942.671.671,0,0,0-.445-.256,13.226,13.226,0,0,0-2.264-.123q-.687,0-1.947.052-.05,1.025-.051,3.042,0,1.9.051,2.878,1.473.114,3.3.112a14.439,14.439,0,0,0,1.85-.081,4.355,4.355,0,0,0,1.023-.277,6.7,6.7,0,0,0,.245-.861c.15-.607.248-1.064.3-1.372h.686a27.8,27.8,0,0,0-.266,3.428,14.311,14.311,0,0,1-2.141.135l-6.114-.072Q1049.542,242.8,1046.992,242.874Z" transform="translate(-950.592 -228.023)" fill="#424448"></path>
      <path id="Path_47" data-name="Path 47" d="M1056.312,242.869v-.655a4.269,4.269,0,0,0,1.422-.164.383.383,0,0,0,.2-.194,3.563,3.563,0,0,0,.145-1.074q.05-1.348.051-2.33v-8.327a.854.854,0,0,0-.409-.88.892.892,0,0,0-.426-.209,8.145,8.145,0,0,0-1.07-.056v-.656c1.179.027,1.922.041,2.225.041q.775,0,1.537-.041.861,1.135,1.265,1.676l2.093,2.6,3.053,3.718q1.466,1.777,2.356,2.8.565.675.95,1.064v-7.46q0-1-.072-2.346a3.928,3.928,0,0,0-.133-1.051.428.428,0,0,0-.216-.2,4.48,4.48,0,0,0-1.4-.152v-.656q1.208.041,2.448.041,1.167,0,2.119-.041v.656a4.48,4.48,0,0,0-1.411.153.37.37,0,0,0-.2.2,3.447,3.447,0,0,0-.145,1.074q-.051,1.35-.05,2.322v4.918q0,1.495.05,5.576l-1.054-.308-.245-.051a.349.349,0,0,1-.113-.061,4.357,4.357,0,0,1-.389-.413q-.851-.974-1.25-1.471l-1.321-1.688-7.262-8.769v7.938q0,1.015.072,2.391a3.886,3.886,0,0,0,.133,1.055.417.417,0,0,0,.216.207,4.4,4.4,0,0,0,1.4.156v.655q-.9-.071-1.988-.072Q1057.7,242.8,1056.312,242.869Z" transform="translate(-947.231 -228.017)" fill="#424448"></path>
      <path id="Path_48" data-name="Path 48" d="M1069.781,231.715h-.636q-.01-2.448-.1-3.39,1.116.041,3.5.1,1.936.041,2.581.041.7,0,3.226-.062,1.834-.038,2.673-.081-.124,1.147-.164,3.39h-.655l-.083-.983c-.054-.594-.092-.933-.113-1.014a.354.354,0,0,0-.087-.175.443.443,0,0,0-.169-.083c-.1-.019-.437-.047-1.023-.081s-1.052-.05-1.394-.05h-1.25q-.1.982-.1,2.65v5.986q0,1.393.03,2.712a3.264,3.264,0,0,0,.149,1.156.689.689,0,0,0,.379.272,7.519,7.519,0,0,0,1.48.107v.655q-1.832-.081-2.755-.081-.4,0-3.2.081v-.655a7.514,7.514,0,0,0,1.476-.107.619.619,0,0,0,.357-.241,2.428,2.428,0,0,0,.164-.994q0-.213.05-2.906V232c0-.286-.007-.6-.019-.942l-.062-1.728h-1.526a17.022,17.022,0,0,0-2.1.1.445.445,0,0,0-.317.134,3.622,3.622,0,0,0-.2,1.116Z" transform="translate(-942.675 -228.017)" fill="#424448"></path>
      <path id="Path_49" data-name="Path 49" d="M975.875,245.371v-.656q2.058.073,3.257.072.8,0,1.7-.023l1.608-.057c.177-.007.342-.011.492-.011a7.359,7.359,0,0,1,2.561.358,2.987,2.987,0,0,1,1.455,1.141,3.15,3.15,0,0,1,.522,1.788,4.052,4.052,0,0,1-.435,1.792,4.137,4.137,0,0,1-1.265,1.511,5.481,5.481,0,0,1-1.731.885,4.831,4.831,0,0,1-1.393.184,7.7,7.7,0,0,1-1.414-.142l-.214-.759a6.651,6.651,0,0,0,1.434.216,3.033,3.033,0,0,0,1.459-.374,2.571,2.571,0,0,0,1.076-1.129,3.628,3.628,0,0,0,.384-1.667,3.376,3.376,0,0,0-.374-1.594,2.442,2.442,0,0,0-1.136-1.083,4.209,4.209,0,0,0-1.849-.37,7.035,7.035,0,0,0-2.089.348q-.094,1.086-.094,3.4v5.158q0,1.391.031,2.713a3.224,3.224,0,0,0,.149,1.156.692.692,0,0,0,.378.271,7.4,7.4,0,0,0,1.48.107v.656q-1.893-.071-2.786-.072-.348,0-3.206.072V258.6a7.323,7.323,0,0,0,1.467-.107.674.674,0,0,0,.367-.24,2.646,2.646,0,0,0,.153-.994q.012-.214.052-2.906v-4.738q0-1.393-.031-2.723a3.2,3.2,0,0,0-.149-1.151.687.687,0,0,0-.378-.267A7.413,7.413,0,0,0,975.875,245.371Z" transform="translate(-975.803 -222.196)" fill="#424448"></path>
      <path id="Path_50" data-name="Path 50" d="M983.65,259.3v-.7a5.231,5.231,0,0,0,1.01-.068.88.88,0,0,0,.369-.214,3.337,3.337,0,0,0,.488-.824q.183-.38,1.333-2.878l2.565-5.777q.421-.952,1.795-4.24h.655l4.38,10.273q1.068,2.5,1.416,3.136a1.054,1.054,0,0,0,.424.47,3.01,3.01,0,0,0,1.042.123v.7q-1.6-.1-2.238-.1l-3.3.1v-.7a11.64,11.64,0,0,0,1.392-.072.617.617,0,0,0,.333-.149.344.344,0,0,0,.087-.24,1.65,1.65,0,0,0-.144-.584L994,254.419h-5.932l-1.112,2.633a3.1,3.1,0,0,0-.3,1.034.338.338,0,0,0,.083.236.614.614,0,0,0,.348.184,7.706,7.706,0,0,0,1.331.092v.7q-1.731-.094-2.593-.094Q984.831,259.2,983.65,259.3Zm4.772-5.746h5.164l-2.551-6.164Z" transform="translate(-973.039 -222.231)" fill="#424448"></path>
      <path id="Path_51" data-name="Path 51" d="M995.769,245.371v-.656c.267.007.672.016,1.219.027l1.967.045q.584,0,1.812-.037,1.6-.055,1.855-.054a8.467,8.467,0,0,1,2.852.348,2.766,2.766,0,0,1,1.388,1.132,3.14,3.14,0,0,1,.492,1.7,3.568,3.568,0,0,1-.461,1.711,3.854,3.854,0,0,1-1.337,1.413,7,7,0,0,1-2.279.872q.256.356,1.209,1.594l2.584,3.393q1.1,1.423,1.288,1.589a.622.622,0,0,0,.184.1,2.64,2.64,0,0,0,.675.052v.656q-.775-.071-1.354-.072-.6,0-1.478.072-.667-.769-2.239-3-.872-1.236-1.54-2.067-1.08-1.368-2.054-2.485l.1-.308c.355.022.625.031.809.031a4.045,4.045,0,0,0,2.826-.881,3,3,0,0,0,.964-2.325,2.553,2.553,0,0,0-.83-2,3.668,3.668,0,0,0-2.51-.743,6.876,6.876,0,0,0-2.067.317c-.028.369-.049.714-.062,1.034q-.01.142-.072,2.978v4.544q0,1.391.052,2.713a3.2,3.2,0,0,0,.138,1.156.684.684,0,0,0,.381.271,7.338,7.338,0,0,0,1.468.107v.656q-1.456-.071-2.673-.072-.984,0-3.309.072V258.6a7.338,7.338,0,0,0,1.468-.107.677.677,0,0,0,.366-.24,2.629,2.629,0,0,0,.153-.994q.012-.214.052-2.906v-4.738q0-1.393-.031-2.723a3.253,3.253,0,0,0-.148-1.151.7.7,0,0,0-.38-.267A7.4,7.4,0,0,0,995.769,245.371Z" transform="translate(-968.729 -222.196)" fill="#424448"></path>
      <path id="Path_52" data-name="Path 52" d="M1006.261,248.1h-.636q-.01-2.446-.1-3.39,1.114.043,3.5.1,1.934.041,2.58.041.7,0,3.228-.061,1.832-.041,2.673-.083-.124,1.149-.166,3.39h-.655l-.082-.983c-.054-.594-.091-.933-.113-1.014a.34.34,0,0,0-.087-.174.389.389,0,0,0-.169-.083q-.142-.031-1.024-.081c-.587-.035-1.052-.051-1.392-.051h-1.25q-.1.982-.1,2.652v5.986q0,1.391.031,2.713a3.236,3.236,0,0,0,.149,1.156.683.683,0,0,0,.378.271,7.378,7.378,0,0,0,1.48.107v.656q-1.834-.083-2.756-.083-.4,0-3.2.083V258.6a7.426,7.426,0,0,0,1.478-.107.623.623,0,0,0,.356-.24,2.433,2.433,0,0,0,.163-.994q0-.213.052-2.906v-5.967q0-.429-.021-.941l-.062-1.73H1009a16.714,16.714,0,0,0-2.1.1.446.446,0,0,0-.318.133,3.652,3.652,0,0,0-.2,1.117Z" transform="translate(-965.261 -222.191)" fill="#424448"></path>
      <path id="Path_53" data-name="Path 53" d="M1015.134,259.255V258.6a4.221,4.221,0,0,0,1.421-.164.381.381,0,0,0,.206-.194,3.53,3.53,0,0,0,.145-1.072c.034-.9.05-1.677.05-2.33V246.51a1.432,1.432,0,0,0-.04-.439,1.489,1.489,0,0,0-.367-.439.882.882,0,0,0-.426-.209,7.872,7.872,0,0,0-1.071-.057v-.656q1.771.043,2.226.042.773,0,1.537-.042.858,1.135,1.263,1.677l2.093,2.6,3.053,3.718q1.468,1.777,2.356,2.8.567.675.95,1.063v-7.46q0-1-.07-2.347a3.888,3.888,0,0,0-.134-1.051.428.428,0,0,0-.214-.194,4.48,4.48,0,0,0-1.4-.153v-.656q1.208.043,2.447.042,1.169,0,2.12-.042v.656a4.515,4.515,0,0,0-1.411.153.381.381,0,0,0-.206.2,3.531,3.531,0,0,0-.144,1.074q-.051,1.35-.051,2.322v4.919q0,1.495.051,5.574l-1.055-.308-.247-.05a.366.366,0,0,1-.113-.062,4.13,4.13,0,0,1-.389-.413q-.85-.974-1.25-1.471l-1.322-1.688-7.262-8.769v7.938q0,1.015.073,2.391a3.832,3.832,0,0,0,.131,1.056.416.416,0,0,0,.217.206,4.35,4.35,0,0,0,1.4.156v.656q-.9-.071-1.987-.072Q1016.525,259.183,1015.134,259.255Z" transform="translate(-961.873 -222.191)" fill="#424448"></path>
      <path id="Path_54" data-name="Path 54" d="M1028.126,259.26V258.6a4.191,4.191,0,0,0,1.414-.164.379.379,0,0,0,.2-.194,3.573,3.573,0,0,0,.144-1.074c.042-.9.061-1.677.061-2.332v-5.226q0-1.391-.03-2.721a3.192,3.192,0,0,0-.149-1.15.693.693,0,0,0-.378-.267,7.414,7.414,0,0,0-1.48-.107v-.656l2.92.062,3.092-.052q2.223-.03,3.226-.03a15.3,15.3,0,0,1,1.915.113,8.121,8.121,0,0,0-.225,1.014q-.021.092-.184,2.13h-.645a11.052,11.052,0,0,0-.133-1.9,4.678,4.678,0,0,0-1.24-.319,18.6,18.6,0,0,0-2.294-.142c-.164,0-.529.014-1.1.041s-.972.052-1.219.072q-.041,1.133-.061,2.121l-.041,3.45q1.2.071,2.2.072a16.183,16.183,0,0,0,2.079-.112.623.623,0,0,0,.42-.164,2.483,2.483,0,0,0,.164-.839l.061-.718h.615v.2l-.05,2.131.05,2.386h-.716l-.031-.7a2.364,2.364,0,0,0-.138-.942.672.672,0,0,0-.446-.255,13.215,13.215,0,0,0-2.264-.123q-.686,0-1.945.052-.051,1.023-.052,3.042,0,1.9.052,2.878,1.472.112,3.3.112a14.46,14.46,0,0,0,1.85-.081,4.332,4.332,0,0,0,1.022-.278,6.476,6.476,0,0,0,.247-.859q.224-.913.3-1.373h.686a27.72,27.72,0,0,0-.266,3.43,14.287,14.287,0,0,1-2.14.136l-6.115-.072Q1030.677,259.188,1028.126,259.26Z" transform="translate(-957.3 -222.196)" fill="#424448"></path>
      <path id="Path_55" data-name="Path 55" d="M1037.333,245.371v-.656q.4.01,1.219.027l1.967.045c.389,0,.992-.012,1.813-.037q1.6-.055,1.854-.054a8.474,8.474,0,0,1,2.852.348,2.764,2.764,0,0,1,1.388,1.132,3.138,3.138,0,0,1,.491,1.7,3.555,3.555,0,0,1-.461,1.711,3.832,3.832,0,0,1-1.337,1.413,6.979,6.979,0,0,1-2.277.872q.256.356,1.209,1.594l2.582,3.393q1.106,1.423,1.289,1.589a.61.61,0,0,0,.184.1,2.636,2.636,0,0,0,.674.052v.656q-.772-.071-1.354-.072-.6,0-1.476.072-.667-.769-2.24-3-.872-1.236-1.54-2.067-1.08-1.368-2.054-2.485l.1-.308c.354.022.625.031.81.031a4.049,4.049,0,0,0,2.827-.881,3,3,0,0,0,.962-2.325,2.557,2.557,0,0,0-.828-2,3.668,3.668,0,0,0-2.51-.743,6.891,6.891,0,0,0-2.069.317c-.027.369-.047.714-.061,1.034q-.012.142-.072,2.978v4.544q0,1.391.052,2.713a3.188,3.188,0,0,0,.136,1.156.688.688,0,0,0,.383.271,7.319,7.319,0,0,0,1.467.107v.656q-1.454-.071-2.672-.072-.984,0-3.309.072V258.6a7.321,7.321,0,0,0,1.467-.107.678.678,0,0,0,.368-.24,2.667,2.667,0,0,0,.153-.994q.012-.214.05-2.906v-4.738q0-1.393-.03-2.723a3.2,3.2,0,0,0-.149-1.151.692.692,0,0,0-.378-.267A7.414,7.414,0,0,0,1037.333,245.371Z" transform="translate(-953.95 -222.196)" fill="#424448"></path>
      <path id="Path_56" data-name="Path 56" d="M1047.846,258.831a24.11,24.11,0,0,0,.194-3.183h.686a7.531,7.531,0,0,0,.17,1.766,1.533,1.533,0,0,0,.569.579,4.679,4.679,0,0,0,1.209.548,4.831,4.831,0,0,0,1.467.241,3.921,3.921,0,0,0,1.909-.477,2.991,2.991,0,0,0,1.271-1.253,3.567,3.567,0,0,0,.4-1.658,3.1,3.1,0,0,0-.2-1.167,1.8,1.8,0,0,0-.609-.793,2.547,2.547,0,0,0-1.014-.426q-.378-.061-1.516-.207t-1.936-.321a4.332,4.332,0,0,1-1.567-.767,3.205,3.205,0,0,1-.814-1.156,3.8,3.8,0,0,1-.313-1.543,4.406,4.406,0,0,1,.631-2.276,4.208,4.208,0,0,1,1.864-1.662,6.118,6.118,0,0,1,2.679-.592,8.68,8.68,0,0,1,1.9.23,8.538,8.538,0,0,1,1.921.672,11.32,11.32,0,0,0-.2,1.2q-.061.557-.092,1.642h-.687a11.339,11.339,0,0,0-.091-1.72,2.609,2.609,0,0,0-.7-.666,4.443,4.443,0,0,0-2.205-.6,3.078,3.078,0,0,0-3.263,3.248,2.4,2.4,0,0,0,.319,1.346,2.177,2.177,0,0,0,1.137.763,10.44,10.44,0,0,0,1.844.366q1.281.173,2.3.366a3.974,3.974,0,0,1,1.425.682,3,3,0,0,1,.756,1.036,3.515,3.515,0,0,1,.3,1.5,4.64,4.64,0,0,1-1.69,3.556,6.3,6.3,0,0,1-4.375,1.518A8.289,8.289,0,0,1,1047.846,258.831Z" transform="translate(-950.246 -222.272)" fill="#424448"></path>
    </g>
    <line id="Line_2" data-name="Line 2" y2="67.491" transform="translate(1070.372 370.212)" fill="none" stroke="#424448" stroke-miterlimit="10" stroke-width="0.4"></line>
  </g>
</svg>
